; NON-PLATED HOLES START AT T1
; THROUGH (PLATED) HOLES START AT T100
M48
INCH
T100C0.035000
T101C0.038445
T102C0.038417
T103C0.038000
%
T100
X013111Y013777
X018111Y012777
X013111Y016777
X018111Y008777
X018111Y013777
X013111Y012777
X013111Y009777
X018111Y017777
T101
X010111Y020777
X020711Y020777
X019711Y020777
X018711Y020777
X024711Y020777
X015111Y020777
X017110Y020777
X013111Y020777
X023711Y020777
X012111Y020777
X009111Y020777
X016111Y020777
X008110Y020777
X021711Y020777
X011111Y020777
X022710Y020777
X014111Y020777
X025711Y020777
T102
X021711Y001777
X022710Y001777
X013711Y001777
X025711Y001777
X011711Y001777
X020711Y001777
X023711Y001777
X018711Y001777
X014711Y001777
X015711Y001777
X024711Y001777
X017710Y001777
X016711Y001777
X012711Y001777
T103
X007111Y010777
X007111Y009777
X007111Y011777
T00
M30
