G04 MADE WITH FRITZING*
G04 WWW.FRITZING.ORG*
G04 DOUBLE SIDED*
G04 HOLES PLATED*
G04 CONTOUR ON CENTER OF CONTOUR VECTOR*
%ASAXBY*%
%FSLAX23Y23*%
%MOIN*%
%OFA0B0*%
%SFA1.0B1.0*%
%ADD10C,0.066194*%
%ADD11C,0.066222*%
%ADD12C,0.078000*%
%ADD13C,0.075000*%
%ADD14R,0.078000X0.078000*%
%ADD15C,0.024000*%
%LNCOPPER0*%
G90*
G70*
G54D10*
X2171Y178D03*
X2271Y178D03*
X2371Y178D03*
X2471Y178D03*
X2571Y178D03*
G54D11*
X1711Y2078D03*
X1611Y2078D03*
X1511Y2078D03*
X1411Y2078D03*
X1311Y2078D03*
X1211Y2078D03*
X1111Y2078D03*
X1011Y2078D03*
X911Y2078D03*
X811Y2078D03*
X2571Y2078D03*
X2471Y2078D03*
X2371Y2078D03*
X2271Y2078D03*
X2171Y2078D03*
X2071Y2078D03*
X1971Y2078D03*
X1871Y2078D03*
G54D10*
X1271Y178D03*
X1171Y178D03*
X1371Y178D03*
X1471Y178D03*
X1571Y178D03*
X1671Y178D03*
X1771Y178D03*
X1871Y178D03*
X2071Y178D03*
G54D12*
X711Y1178D03*
X711Y1078D03*
X711Y978D03*
G54D13*
X1311Y1278D03*
X1311Y978D03*
X1311Y1678D03*
X1311Y1378D03*
X1811Y1778D03*
X1811Y1378D03*
X1811Y1278D03*
X1811Y878D03*
G54D14*
X711Y1178D03*
G54D15*
X1326Y1654D02*
X1796Y902D01*
D02*
X1285Y1367D02*
X1236Y1346D01*
X1236Y1346D02*
X1236Y1226D01*
X1236Y1226D02*
X1303Y1005D01*
D02*
X740Y1086D02*
X1236Y1226D01*
D02*
X1562Y207D02*
X1320Y951D01*
D02*
X1588Y2058D02*
X636Y1250D01*
X636Y1250D02*
X636Y1010D01*
X636Y1010D02*
X683Y990D01*
D02*
X1836Y1293D02*
X1884Y1322D01*
X1884Y1322D02*
X1816Y1750D01*
D02*
X1131Y2101D02*
X1164Y2138D01*
X1164Y2138D02*
X1764Y2138D01*
X1764Y2138D02*
X1807Y1806D01*
G04 End of Copper0*
M02*