G04 MADE WITH FRITZING*
G04 WWW.FRITZING.ORG*
G04 DOUBLE SIDED*
G04 HOLES PLATED*
G04 CONTOUR ON CENTER OF CONTOUR VECTOR*
%ASAXBY*%
%FSLAX23Y23*%
%MOIN*%
%OFA0B0*%
%SFA1.0B1.0*%
%ADD10C,0.076194*%
%ADD11C,0.076222*%
%ADD12C,0.088000*%
%ADD13C,0.085000*%
%ADD14R,0.088000X0.088000*%
%LNMASK0*%
G90*
G70*
G54D10*
X2171Y178D03*
X2271Y178D03*
X2371Y178D03*
X2471Y178D03*
X2571Y178D03*
G54D11*
X1711Y2078D03*
X1611Y2078D03*
X1511Y2078D03*
X1411Y2078D03*
X1311Y2078D03*
X1211Y2078D03*
X1111Y2078D03*
X1011Y2078D03*
X911Y2078D03*
X811Y2078D03*
X2571Y2078D03*
X2471Y2078D03*
X2371Y2078D03*
X2271Y2078D03*
X2171Y2078D03*
X2071Y2078D03*
X1971Y2078D03*
X1871Y2078D03*
G54D10*
X1271Y178D03*
X1171Y178D03*
X1371Y178D03*
X1471Y178D03*
X1571Y178D03*
X1671Y178D03*
X1771Y178D03*
X1871Y178D03*
X2071Y178D03*
G54D12*
X711Y1178D03*
X711Y1078D03*
X711Y978D03*
G54D13*
X1311Y1278D03*
X1311Y978D03*
X1311Y1678D03*
X1311Y1378D03*
X1811Y1778D03*
X1811Y1378D03*
X1811Y1278D03*
X1811Y878D03*
G54D14*
X711Y1178D03*
G04 End of Mask0*
M02*